<svg preserveAspectRatio="none" overflow="visible" style="display: block;" width="12" height="12" viewBox="0 0 12 12" fill="none" xmlns="http://www.w3.org/2000/svg">
<path id="Primary" d="M1.5 10.875H6.75C6.95625 10.875 7.125 10.7063 7.125 10.5V9.375H8.25V10.5C8.25 11.3273 7.57734 12 6.75 12H1.5C0.672656 12 0 11.3273 0 10.5V5.25C0 4.42266 0.672656 3.75 1.5 3.75H2.625V4.875H1.5C1.29375 4.875 1.125 5.04375 1.125 5.25V10.5C1.125 10.7063 1.29375 10.875 1.5 10.875ZM10.875 6.75V1.5C10.875 1.29375 10.7063 1.125 10.5 1.125H5.25C5.04375 1.125 4.875 1.29375 4.875 1.5V6.75C4.875 6.95625 5.04375 7.125 5.25 7.125H10.5C10.7063 7.125 10.875 6.95625 10.875 6.75ZM5.25 8.25C4.42266 8.25 3.75 7.57734 3.75 6.75V1.5C3.75 0.672656 4.42266 0 5.25 0H10.5C11.3273 0 12 0.672656 12 1.5V6.75C12 7.57734 11.3273 8.25 10.5 8.25H5.25ZM7.875 2.25C8.18672 2.25 8.4375 2.50078 8.4375 2.8125V3.5625H9.1875C9.49922 3.5625 9.75 3.81328 9.75 4.125C9.75 4.43672 9.49922 4.6875 9.1875 4.6875H8.4375V5.4375C8.4375 5.74922 8.18672 6 7.875 6C7.56328 6 7.3125 5.74922 7.3125 5.4375V4.6875H6.5625C6.25078 4.6875 6 4.43672 6 4.125C6 3.81328 6.25078 3.5625 6.5625 3.5625H7.3125V2.8125C7.3125 2.50078 7.56328 2.25 7.875 2.25Z" fill="#45556C"/>
</svg>
